#define circle_width 9
#define circle_height 9
static char circle_bits[] = {
  0x38, 0x00,
  0xfe, 0x00,
  0xfe, 0x00,
  0xff, 0x01,
  0xff, 0x01,
  0xff, 0x01,
  0xfe, 0x00,
  0xfe, 0x00,
  0x38, 0x00};
