#define spiral_mask_width 16
#define spiral_mask_height 16
static char spiral_mask_bits[] = {
  0xff, 0xff,
  0x00, 0x80,
  0xfe, 0xbf,
  0x02, 0xa0,
  0xfa, 0xaf,
  0x0a, 0xa8,
  0xea, 0xab,
  0x2a, 0xaa,
  0xaa, 0xaa,
  0xaa, 0xab,
  0x2a, 0xa8,
  0xea, 0xaf,
  0x0a, 0xa0,
  0xfa, 0xbf,
  0x02, 0x80,
  0xfe, 0xff};