#define spiral_width 16
#define spiral_height 16
static char spiral_bits[] = {
  0x00, 0x00,
  0xff, 0x7f,
  0x01, 0x40,
  0xfd, 0x5f,
  0x05, 0x50,
  0xf5, 0x57,
  0x15, 0x54,
  0xd5, 0x55,
  0x55, 0x55,
  0x55, 0x54,
  0xd5, 0x57,
  0x15, 0x50,
  0xf5, 0x5f,
  0x05, 0x40,
  0xfd, 0x7f,
  0x01, 0x00};