<?xml version="1.0" encoding="UTF-8"?>
<svg xmlns="http://www.w3.org/2000/svg" width="600" height="300" viewBox="0 0 600 300">
<rect x="38" y="7" width="472" height="261" fill="#ffffff"/>
<defs><clipPath id="rbcPlot" clipPathUnits="userSpaceOnUse"><rect x="38" y="7" width="472" height="261"/></clipPath></defs>
<g clip-path="url(#rbcPlot)">
<polyline points="47,137 87.77,72.165 119.48,34.8363 146.66,18.1432 173.84,18.1432 196.49,30.9669 223.67,59.8717 332.39,225.205 359.57,249.503 386.75,258 409.4,252.078 436.58,230.232 500,137 " fill="none" stroke="#008000" stroke-width="2" stroke-linecap="butt" stroke-linejoin="miter"/>
<polyline points="47,137 51.53,129.402 56.06,121.835 60.59,114.327 65.12,106.909 69.65,99.6089 74.18,92.4569 78.71,85.4807 83.24,78.7078 87.77,72.165 92.3,65.878 96.83,59.8717 101.36,54.1698 105.89,48.7948 110.42,43.7679 114.95,39.1089 119.48,34.8363 124.01,30.9669 128.54,27.5159 133.07,24.497 137.6,21.9222 142.13,19.8014 146.66,18.1432 151.19,16.9541 155.72,16.2388 160.25,16 164.78,16.2388 169.31,16.9541 173.84,18.1432 178.37,19.8014 182.9,21.9222 187.43,24.497 191.96,27.5159 196.49,30.9669 201.02,34.8363 205.55,39.1089 210.08,43.7679 214.61,48.7948 219.14,54.1698 223.67,59.8717 228.2,65.878 232.73,72.165 237.26,78.7078 241.79,85.4807 246.32,92.4569 250.85,99.6089 255.38,106.909 259.91,114.327 264.44,121.835 268.97,129.402 273.5,137 278.03,144.598 282.56,152.165 287.09,159.673 291.62,167.091 296.15,174.391 300.68,181.543 305.21,188.519 309.74,195.292 314.27,201.835 318.8,208.122 323.33,214.128 327.86,219.83 332.39,225.205 336.92,230.232 341.45,234.891 345.98,239.164 350.51,243.033 355.04,246.484 359.57,249.503 364.1,252.078 368.63,254.199 373.16,255.857 377.69,257.046 382.22,257.761 386.75,258 391.28,257.761 395.81,257.046 400.34,255.857 404.87,254.199 409.4,252.078 413.93,249.503 418.46,246.484 422.99,243.033 427.52,239.164 432.05,234.891 436.58,230.232 441.11,225.205 445.64,219.83 450.17,214.128 454.7,208.122 459.23,201.835 463.76,195.292 468.29,188.519 472.82,181.543 477.35,174.391 481.88,167.091 486.41,159.673 490.94,152.165 495.47,144.598 500,137 " fill="none" stroke="#000080" stroke-width="1" stroke-linecap="butt" stroke-linejoin="miter"/>
</g>
<rect x="0" y="0" width="600" height="8" fill="#f0f0f0"/>
<rect x="0" y="8" width="39" height="258" fill="#f0f0f0"/>
<rect x="508" y="8" width="92" height="258" fill="#f0f0f0"/>
<rect x="0" y="266" width="600" height="34" fill="#f0f0f0"/>
<rect x="38" y="266" width="471" height="1" fill="#ffffff"/>
<rect x="508" y="7" width="1" height="260" fill="#ffffff"/>
<polygon points="38,267 38,7 509,7 508,8 39,8 39,266 " fill="#a0a0a0" fill-opacity="1" fill-rule="evenodd"/>
<rect x="514" y="42" width="80" height="1" fill="#ffffff"/>
<rect x="593" y="9" width="1" height="34" fill="#ffffff"/>
<polygon points="514,43 514,9 594,9 593,10 515,10 515,42 " fill="#a0a0a0" fill-opacity="1" fill-rule="evenodd"/>
<polyline points="519,18 535,18 " fill="none" stroke="#000080" stroke-width="3" stroke-linecap="butt" stroke-linejoin="miter"/>
<g transform="translate(551 18) rotate(-0) translate(-12 -5)" font-family="Arial" font-size="7.99301" font-weight="normal" font-style="normal">
<text xml:space="preserve" x="0" y="8" textLength="24" lengthAdjust="spacingAndGlyphs" fill="#000000">signal1</text>
</g>
<polyline points="519,34 535,34 " fill="none" stroke="#008000" stroke-width="4" stroke-linecap="butt" stroke-linejoin="miter"/>
<g transform="translate(564.5 34) rotate(-0) translate(-25.5 -5)" font-family="Arial" font-size="7.99301" font-weight="normal" font-style="normal">
<text xml:space="preserve" x="0" y="8" textLength="51" lengthAdjust="spacingAndGlyphs" fill="#000000">signal1reduced</text>
</g>
<g transform="translate(47 287.5) rotate(-0) translate(-4.5 -7.5)" font-family="Arial Narrow" font-size="10.6573" font-weight="normal" font-style="normal">
<text xml:space="preserve" x="2" y="12" textLength="5" lengthAdjust="spacingAndGlyphs" fill="#000000">0</text>
</g>
<g transform="translate(191.194 287.5) rotate(-0) translate(-4.5 -7.5)" font-family="Arial Narrow" font-size="10.6573" font-weight="normal" font-style="normal">
<text xml:space="preserve" x="2" y="12" textLength="5" lengthAdjust="spacingAndGlyphs" fill="#000000">2</text>
</g>
<g transform="translate(335.389 287.5) rotate(-0) translate(-4.5 -7.5)" font-family="Arial Narrow" font-size="10.6573" font-weight="normal" font-style="normal">
<text xml:space="preserve" x="2" y="12" textLength="5" lengthAdjust="spacingAndGlyphs" fill="#000000">4</text>
</g>
<g transform="translate(479.583 287.5) rotate(-0) translate(-4.5 -7.5)" font-family="Arial Narrow" font-size="10.6573" font-weight="normal" font-style="normal">
<text xml:space="preserve" x="2" y="12" textLength="5" lengthAdjust="spacingAndGlyphs" fill="#000000">6</text>
</g>
<polyline points="47,270 500,270 " fill="none" stroke="#000000" stroke-width="1" stroke-linecap="butt" stroke-linejoin="miter"/>
<polyline points="119.097,270 119.097,275 " fill="none" stroke="#000000" stroke-width="1" stroke-linecap="butt" stroke-linejoin="miter"/>
<polyline points="47,270 47,278 " fill="none" stroke="#000000" stroke-width="1" stroke-linecap="butt" stroke-linejoin="miter"/>
<polyline points="263.292,270 263.292,275 " fill="none" stroke="#000000" stroke-width="1" stroke-linecap="butt" stroke-linejoin="miter"/>
<polyline points="191.194,270 191.194,278 " fill="none" stroke="#000000" stroke-width="1" stroke-linecap="butt" stroke-linejoin="miter"/>
<polyline points="407.486,270 407.486,275 " fill="none" stroke="#000000" stroke-width="1" stroke-linecap="butt" stroke-linejoin="miter"/>
<polyline points="335.389,270 335.389,278 " fill="none" stroke="#000000" stroke-width="1" stroke-linecap="butt" stroke-linejoin="miter"/>
<polyline points="479.583,270 479.583,278 " fill="none" stroke="#000000" stroke-width="1" stroke-linecap="butt" stroke-linejoin="miter"/>
<g transform="translate(19 258) rotate(-0) translate(-6 -7.5)" font-family="Arial Narrow" font-size="10.6573" font-weight="normal" font-style="normal">
<text xml:space="preserve" x="2" y="12" textLength="8" lengthAdjust="spacingAndGlyphs" fill="#000000">-1</text>
</g>
<g transform="translate(15 197.5) rotate(-0) translate(-10 -7.5)" font-family="Arial Narrow" font-size="10.6573" font-weight="normal" font-style="normal">
<text xml:space="preserve" x="2" y="12" textLength="16" lengthAdjust="spacingAndGlyphs" fill="#000000">-0.5</text>
</g>
<g transform="translate(20.5 137) rotate(-0) translate(-4.5 -7.5)" font-family="Arial Narrow" font-size="10.6573" font-weight="normal" font-style="normal">
<text xml:space="preserve" x="2" y="12" textLength="5" lengthAdjust="spacingAndGlyphs" fill="#000000">0</text>
</g>
<g transform="translate(16.5 76.5) rotate(-0) translate(-8.5 -7.5)" font-family="Arial Narrow" font-size="10.6573" font-weight="normal" font-style="normal">
<text xml:space="preserve" x="2" y="12" textLength="13" lengthAdjust="spacingAndGlyphs" fill="#000000">0.5</text>
</g>
<g transform="translate(20.5 16) rotate(-0) translate(-4.5 -7.5)" font-family="Arial Narrow" font-size="10.6573" font-weight="normal" font-style="normal">
<text xml:space="preserve" x="2" y="12" textLength="5" lengthAdjust="spacingAndGlyphs" fill="#000000">1</text>
</g>
<polyline points="35,258 35,16 " fill="none" stroke="#000000" stroke-width="1" stroke-linecap="butt" stroke-linejoin="miter"/>
<polyline points="35,227.75 30,227.75 " fill="none" stroke="#000000" stroke-width="1" stroke-linecap="butt" stroke-linejoin="miter"/>
<polyline points="35,258 27,258 " fill="none" stroke="#000000" stroke-width="1" stroke-linecap="butt" stroke-linejoin="miter"/>
<polyline points="35,167.25 30,167.25 " fill="none" stroke="#000000" stroke-width="1" stroke-linecap="butt" stroke-linejoin="miter"/>
<polyline points="35,197.5 27,197.5 " fill="none" stroke="#000000" stroke-width="1" stroke-linecap="butt" stroke-linejoin="miter"/>
<polyline points="35,106.75 30,106.75 " fill="none" stroke="#000000" stroke-width="1" stroke-linecap="butt" stroke-linejoin="miter"/>
<polyline points="35,137 27,137 " fill="none" stroke="#000000" stroke-width="1" stroke-linecap="butt" stroke-linejoin="miter"/>
<polyline points="35,46.25 30,46.25 " fill="none" stroke="#000000" stroke-width="1" stroke-linecap="butt" stroke-linejoin="miter"/>
<polyline points="35,76.5 27,76.5 " fill="none" stroke="#000000" stroke-width="1" stroke-linecap="butt" stroke-linejoin="miter"/>
<polyline points="35,16 27,16 " fill="none" stroke="#000000" stroke-width="1" stroke-linecap="butt" stroke-linejoin="miter"/>
</svg>
